<?xml version="1.0" encoding="UTF-8"?>
<svg xmlns="http://www.w3.org/2000/svg" height="264" width="264" class="pyqrcode"><path transform="scale(8)" stroke="#000" class="pyqrline" d="M4 4.5h7m3 0h6m2 0h7m-25 1h1m5 0h1m2 0h1m3 0h1m1 0h1m2 0h1m5 0h1m-25 1h1m1 0h3m1 0h1m1 0h5m3 0h1m1 0h1m1 0h3m1 0h1m-25 1h1m1 0h3m1 0h1m1 0h5m1 0h3m1 0h1m1 0h3m1 0h1m-25 1h1m1 0h3m1 0h1m2 0h1m1 0h1m3 0h2m1 0h1m1 0h3m1 0h1m-25 1h1m5 0h1m3 0h1m1 0h2m1 0h2m1 0h1m5 0h1m-25 1h7m1 0h1m1 0h1m1 0h1m1 0h1m1 0h1m1 0h7m-16 1h3m1 0h1m1 0h1m-13 1h2m1 0h2m2 0h1m1 0h2m1 0h1m5 0h2m-19 1h2m2 0h4m1 0h2m1 0h1m2 0h4m-22 1h2m1 0h1m1 0h1m2 0h2m3 0h2m2 0h4m2 0h1m-23 1h2m1 0h1m1 0h2m3 0h2m2 0h4m1 0h2m-23 1h2m1 0h4m1 0h1m1 0h2m1 0h1m1 0h2m1 0h1m2 0h1m-22 1h1m3 0h2m1 0h2m1 0h1m1 0h1m1 0h1m5 0h1m1 0h1m-23 1h3m3 0h2m1 0h1m1 0h1m1 0h3m1 0h4m1 0h3m-25 1h1m1 0h4m1 0h1m1 0h1m1 0h3m1 0h2m1 0h1m1 0h4m-24 1h1m1 0h2m2 0h2m1 0h1m1 0h1m2 0h11m-17 1h2m1 0h1m1 0h4m3 0h2m1 0h2m-25 1h7m1 0h1m1 0h1m3 0h1m1 0h1m1 0h1m1 0h2m2 0h1m-25 1h1m5 0h1m2 0h3m1 0h1m1 0h2m3 0h2m-22 1h1m1 0h3m1 0h1m1 0h2m3 0h1m1 0h7m1 0h1m-24 1h1m1 0h3m1 0h1m1 0h1m1 0h2m2 0h5m1 0h3m1 0h1m-25 1h1m1 0h3m1 0h1m5 0h3m2 0h1m1 0h2m1 0h3m-25 1h1m5 0h1m2 0h1m1 0h3m3 0h1m4 0h3m-25 1h7m2 0h4m1 0h1m1 0h1m1 0h4m2 0h1"/></svg>
